<mxfile host="app.diagrams.net" agent="Mozilla/5.0 (Windows NT 10.0; Win64; x64) AppleWebKit/537.36 (KHTML, like Gecko) Chrome/130.0.0.0 Safari/537.36" version="24.8.4">
  <diagram name="Sivu-1" id="BPFNlYaGP27UfQd6YTOX">
    <mxGraphModel dx="1434" dy="790" grid="1" gridSize="10" guides="1" tooltips="1" connect="1" arrows="1" fold="1" page="1" pageScale="1" pageWidth="827" pageHeight="1169" math="0" shadow="0">
      <root>
        <mxCell id="0" />
        <mxCell id="1" parent="0" />
        <mxCell id="ndxzz0GZTPumwG9mtj6J-4" style="edgeStyle=orthogonalEdgeStyle;rounded=0;orthogonalLoop=1;jettySize=auto;html=1;exitX=1;exitY=0.5;exitDx=0;exitDy=0;entryX=0;entryY=0.5;entryDx=0;entryDy=0;" edge="1" parent="1" source="ndxzz0GZTPumwG9mtj6J-1" target="ndxzz0GZTPumwG9mtj6J-2">
          <mxGeometry relative="1" as="geometry" />
        </mxCell>
        <mxCell id="ndxzz0GZTPumwG9mtj6J-1" value="customer" style="whiteSpace=wrap;html=1;aspect=fixed;" vertex="1" parent="1">
          <mxGeometry x="374" y="370" width="66" height="66" as="geometry" />
        </mxCell>
        <mxCell id="ndxzz0GZTPumwG9mtj6J-7" style="edgeStyle=orthogonalEdgeStyle;rounded=0;orthogonalLoop=1;jettySize=auto;html=1;exitX=1;exitY=0.5;exitDx=0;exitDy=0;entryX=0;entryY=0.5;entryDx=0;entryDy=0;" edge="1" parent="1" source="ndxzz0GZTPumwG9mtj6J-2" target="ndxzz0GZTPumwG9mtj6J-5">
          <mxGeometry relative="1" as="geometry" />
        </mxCell>
        <mxCell id="ndxzz0GZTPumwG9mtj6J-13" style="edgeStyle=orthogonalEdgeStyle;rounded=0;orthogonalLoop=1;jettySize=auto;html=1;exitX=0.5;exitY=0;exitDx=0;exitDy=0;entryX=0;entryY=0.5;entryDx=0;entryDy=0;" edge="1" parent="1" source="ndxzz0GZTPumwG9mtj6J-2" target="ndxzz0GZTPumwG9mtj6J-11">
          <mxGeometry relative="1" as="geometry" />
        </mxCell>
        <mxCell id="ndxzz0GZTPumwG9mtj6J-2" value="product" style="rounded=0;whiteSpace=wrap;html=1;" vertex="1" parent="1">
          <mxGeometry x="460" y="373" width="90" height="60" as="geometry" />
        </mxCell>
        <mxCell id="ndxzz0GZTPumwG9mtj6J-3" value="" style="endArrow=none;html=1;rounded=0;" edge="1" parent="1">
          <mxGeometry width="50" height="50" relative="1" as="geometry">
            <mxPoint x="390" y="430" as="sourcePoint" />
            <mxPoint x="440" y="380" as="targetPoint" />
          </mxGeometry>
        </mxCell>
        <mxCell id="ndxzz0GZTPumwG9mtj6J-10" style="edgeStyle=orthogonalEdgeStyle;rounded=0;orthogonalLoop=1;jettySize=auto;html=1;exitX=0.5;exitY=1;exitDx=0;exitDy=0;entryX=0.5;entryY=0;entryDx=0;entryDy=0;" edge="1" parent="1" source="ndxzz0GZTPumwG9mtj6J-5" target="ndxzz0GZTPumwG9mtj6J-8">
          <mxGeometry relative="1" as="geometry" />
        </mxCell>
        <mxCell id="ndxzz0GZTPumwG9mtj6J-5" value="order" style="rounded=0;whiteSpace=wrap;html=1;" vertex="1" parent="1">
          <mxGeometry x="570" y="373" width="120" height="60" as="geometry" />
        </mxCell>
        <mxCell id="ndxzz0GZTPumwG9mtj6J-6" value="" style="endArrow=none;html=1;rounded=0;" edge="1" parent="1">
          <mxGeometry width="50" height="50" relative="1" as="geometry">
            <mxPoint x="390" y="430" as="sourcePoint" />
            <mxPoint x="440" y="380" as="targetPoint" />
          </mxGeometry>
        </mxCell>
        <mxCell id="ndxzz0GZTPumwG9mtj6J-21" value="" style="edgeStyle=orthogonalEdgeStyle;rounded=0;orthogonalLoop=1;jettySize=auto;html=1;" edge="1" parent="1" source="ndxzz0GZTPumwG9mtj6J-8" target="ndxzz0GZTPumwG9mtj6J-20">
          <mxGeometry relative="1" as="geometry" />
        </mxCell>
        <mxCell id="ndxzz0GZTPumwG9mtj6J-8" value="payment" style="rounded=1;whiteSpace=wrap;html=1;" vertex="1" parent="1">
          <mxGeometry x="570" y="460" width="120" height="60" as="geometry" />
        </mxCell>
        <mxCell id="ndxzz0GZTPumwG9mtj6J-9" value="" style="endArrow=none;html=1;rounded=0;" edge="1" parent="1">
          <mxGeometry width="50" height="50" relative="1" as="geometry">
            <mxPoint x="390" y="430" as="sourcePoint" />
            <mxPoint x="440" y="380" as="targetPoint" />
          </mxGeometry>
        </mxCell>
        <mxCell id="ndxzz0GZTPumwG9mtj6J-15" style="edgeStyle=orthogonalEdgeStyle;rounded=0;orthogonalLoop=1;jettySize=auto;html=1;exitX=0.5;exitY=1;exitDx=0;exitDy=0;" edge="1" parent="1" source="ndxzz0GZTPumwG9mtj6J-11">
          <mxGeometry relative="1" as="geometry">
            <mxPoint x="630" y="370" as="targetPoint" />
          </mxGeometry>
        </mxCell>
        <mxCell id="ndxzz0GZTPumwG9mtj6J-11" value="product type&lt;div&gt;quantity&lt;/div&gt;" style="rounded=1;whiteSpace=wrap;html=1;" vertex="1" parent="1">
          <mxGeometry x="560" y="260" width="120" height="60" as="geometry" />
        </mxCell>
        <mxCell id="ndxzz0GZTPumwG9mtj6J-12" value="" style="endArrow=none;html=1;rounded=0;" edge="1" parent="1">
          <mxGeometry width="50" height="50" relative="1" as="geometry">
            <mxPoint x="390" y="430" as="sourcePoint" />
            <mxPoint x="440" y="380" as="targetPoint" />
          </mxGeometry>
        </mxCell>
        <mxCell id="ndxzz0GZTPumwG9mtj6J-14" value="" style="endArrow=none;html=1;rounded=0;" edge="1" parent="1">
          <mxGeometry width="50" height="50" relative="1" as="geometry">
            <mxPoint x="390" y="430" as="sourcePoint" />
            <mxPoint x="440" y="380" as="targetPoint" />
          </mxGeometry>
        </mxCell>
        <mxCell id="ndxzz0GZTPumwG9mtj6J-16" value="customer id" style="ellipse;whiteSpace=wrap;html=1;" vertex="1" parent="1">
          <mxGeometry x="354" y="260" width="120" height="80" as="geometry" />
        </mxCell>
        <mxCell id="ndxzz0GZTPumwG9mtj6J-17" value="" style="endArrow=none;html=1;rounded=0;" edge="1" parent="1">
          <mxGeometry width="50" height="50" relative="1" as="geometry">
            <mxPoint x="390" y="430" as="sourcePoint" />
            <mxPoint x="440" y="380" as="targetPoint" />
          </mxGeometry>
        </mxCell>
        <mxCell id="ndxzz0GZTPumwG9mtj6J-18" style="edgeStyle=orthogonalEdgeStyle;rounded=0;orthogonalLoop=1;jettySize=auto;html=1;exitX=0.5;exitY=0;exitDx=0;exitDy=0;entryX=0.633;entryY=1;entryDx=0;entryDy=0;entryPerimeter=0;" edge="1" parent="1" source="ndxzz0GZTPumwG9mtj6J-2" target="ndxzz0GZTPumwG9mtj6J-16">
          <mxGeometry relative="1" as="geometry" />
        </mxCell>
        <mxCell id="ndxzz0GZTPumwG9mtj6J-19" value="product name" style="rounded=1;whiteSpace=wrap;html=1;" vertex="1" parent="1">
          <mxGeometry x="475" y="450" width="60" height="40" as="geometry" />
        </mxCell>
        <mxCell id="ndxzz0GZTPumwG9mtj6J-23" value="" style="edgeStyle=orthogonalEdgeStyle;rounded=0;orthogonalLoop=1;jettySize=auto;html=1;" edge="1" parent="1" source="ndxzz0GZTPumwG9mtj6J-20" target="ndxzz0GZTPumwG9mtj6J-22">
          <mxGeometry relative="1" as="geometry" />
        </mxCell>
        <mxCell id="ndxzz0GZTPumwG9mtj6J-20" value="order id" style="whiteSpace=wrap;html=1;rounded=1;" vertex="1" parent="1">
          <mxGeometry x="570" y="555" width="120" height="60" as="geometry" />
        </mxCell>
        <mxCell id="ndxzz0GZTPumwG9mtj6J-22" value="product mailer" style="whiteSpace=wrap;html=1;rounded=1;" vertex="1" parent="1">
          <mxGeometry x="370" y="555" width="120" height="60" as="geometry" />
        </mxCell>
      </root>
    </mxGraphModel>
  </diagram>
</mxfile>
